<svg width="151" height="74" viewBox="0 0 151 74" fill="none" xmlns="http://www.w3.org/2000/svg">
<path d="M12 34L28 24V12L1 29.5V38.5L28 57V44.5L12 34Z" fill="white" stroke="white"/>
<path d="M139.5 33.5L123.5 23.5V11.5L150.5 29V38L123.5 56.5V44L139.5 33.5Z" fill="white" stroke="white"/>
<path fill-rule="evenodd" clip-rule="evenodd" d="M60.5 73.5L91 1H113V73.5H97.5L80.5 64L76.5 73.5H60.5ZM98 22.5L85 53L98 60V22.5Z" fill="white" stroke="white"/>
<path d="M57 10V1H81.5V10H76.5L51.5 65.5H56V73.5H30.5V65.5H35.5L60.5 10H57Z" fill="white" stroke="white"/>
</svg>
