<svg width="770" height="106" viewBox="0 0 770 106" fill="none" xmlns="http://www.w3.org/2000/svg">
<path d="M12 51L28 41V29L1 46.5V55.5L28 74V61.5L12 51Z" fill="white" stroke="white"/>
<path d="M139.5 50.5L123.5 40.5V28.5L150.5 46V55L123.5 73.5V61L139.5 50.5Z" fill="white" stroke="white"/>
<path fill-rule="evenodd" clip-rule="evenodd" d="M60.5 90.5L91 18H113V90.5H97.5L80.5 81L76.5 90.5H60.5ZM98 39.5L85 70L98 77V39.5Z" fill="white" stroke="white"/>
<path d="M57 27V18H81.5V27H76.5L51.5 82.5H56V90.5H30.5V82.5H35.5L60.5 27H57Z" fill="white" stroke="white"/>
<path d="M171.544 87V24.42H184.564V87H171.544ZM193.897 87V41.136H205.657V50.208L204.985 48.192C206.049 45.448 207.757 43.432 210.109 42.144C212.517 40.8 215.317 40.128 218.509 40.128C221.981 40.128 225.005 40.856 227.581 42.312C230.213 43.768 232.257 45.812 233.713 48.444C235.169 51.02 235.897 54.044 235.897 57.516V87H223.297V60.204C223.297 58.412 222.933 56.872 222.205 55.584C221.533 54.296 220.553 53.288 219.265 52.56C218.033 51.832 216.577 51.468 214.897 51.468C213.273 51.468 211.817 51.832 210.529 52.56C209.241 53.288 208.233 54.296 207.505 55.584C206.833 56.872 206.497 58.412 206.497 60.204V87H193.897ZM265.434 87.504C259.89 87.504 255.578 86.02 252.498 83.052C249.474 80.028 247.962 75.828 247.962 70.452V52.056H240.234V41.136H240.654C243.006 41.136 244.798 40.548 246.03 39.372C247.318 38.196 247.962 36.432 247.962 34.08V30.72H260.562V41.136H271.314V52.056H260.562V69.612C260.562 71.18 260.842 72.496 261.402 73.56C261.962 74.568 262.83 75.324 264.006 75.828C265.182 76.332 266.638 76.584 268.374 76.584C268.766 76.584 269.214 76.556 269.718 76.5C270.222 76.444 270.754 76.388 271.314 76.332V87C270.474 87.112 269.522 87.224 268.458 87.336C267.394 87.448 266.386 87.504 265.434 87.504ZM299.95 88.008C295.078 88.008 290.85 86.944 287.266 84.816C283.682 82.632 280.91 79.72 278.95 76.08C276.99 72.44 276.01 68.408 276.01 63.984C276.01 59.392 277.018 55.304 279.034 51.72C281.106 48.136 283.878 45.308 287.35 43.236C290.822 41.164 294.742 40.128 299.11 40.128C302.75 40.128 305.97 40.716 308.77 41.892C311.57 43.012 313.922 44.608 315.826 46.68C317.786 48.752 319.27 51.16 320.278 53.904C321.286 56.592 321.79 59.532 321.79 62.724C321.79 63.62 321.734 64.516 321.622 65.412C321.566 66.252 321.426 66.98 321.202 67.596H286.846V58.356H314.062L308.098 62.724C308.658 60.316 308.63 58.188 308.014 56.34C307.398 54.436 306.306 52.952 304.738 51.888C303.226 50.768 301.35 50.208 299.11 50.208C296.926 50.208 295.05 50.74 293.482 51.804C291.914 52.868 290.738 54.436 289.954 56.508C289.17 58.58 288.862 61.1 289.03 64.068C288.806 66.644 289.114 68.912 289.954 70.872C290.794 72.832 292.082 74.372 293.818 75.492C295.554 76.556 297.654 77.088 300.118 77.088C302.358 77.088 304.262 76.64 305.83 75.744C307.454 74.848 308.714 73.616 309.61 72.048L319.69 76.836C318.794 79.076 317.366 81.036 315.406 82.716C313.502 84.396 311.234 85.712 308.602 86.664C305.97 87.56 303.086 88.008 299.95 88.008ZM328.369 87V23.412H340.969V87H328.369ZM349.35 87V41.136H361.95V87H349.35ZM349.35 37.02V24.42H361.95V37.02H349.35ZM380.888 87L402.056 24.42H419.36L440.528 87H426.332L422.132 74.232H399.2L395 87H380.888ZM402.812 62.892H418.52L408.944 33.324H412.472L402.812 62.892ZM466.139 88.008C461.547 88.008 457.403 86.972 453.707 84.9C450.067 82.772 447.155 79.888 444.971 76.248C442.843 72.608 441.779 68.52 441.779 63.984C441.779 59.448 442.843 55.388 444.971 51.804C447.099 48.164 450.011 45.308 453.707 43.236C457.403 41.164 461.547 40.128 466.139 40.128C469.555 40.128 472.719 40.716 475.631 41.892C478.543 43.068 481.035 44.72 483.107 46.848C485.179 48.92 486.663 51.384 487.559 54.24L476.639 58.944C475.855 56.648 474.511 54.828 472.607 53.484C470.759 52.14 468.603 51.468 466.139 51.468C463.955 51.468 461.995 52 460.259 53.064C458.579 54.128 457.235 55.612 456.227 57.516C455.275 59.42 454.799 61.604 454.799 64.068C454.799 66.532 455.275 68.716 456.227 70.62C457.235 72.524 458.579 74.008 460.259 75.072C461.995 76.136 463.955 76.668 466.139 76.668C468.659 76.668 470.843 75.996 472.691 74.652C474.539 73.308 475.855 71.488 476.639 69.192L487.559 73.98C486.719 76.668 485.263 79.076 483.191 81.204C481.119 83.332 478.627 85.012 475.715 86.244C472.803 87.42 469.611 88.008 466.139 88.008ZM508.334 88.008C505.03 88.008 502.174 87.476 499.766 86.412C497.358 85.348 495.51 83.836 494.222 81.876C492.934 79.86 492.29 77.48 492.29 74.736C492.29 72.16 492.878 69.892 494.054 67.932C495.23 65.916 497.022 64.236 499.43 62.892C501.894 61.548 504.946 60.596 508.586 60.036L522.614 57.768V67.008L510.854 69.108C509.062 69.444 507.69 70.032 506.738 70.872C505.786 71.656 505.31 72.804 505.31 74.316C505.31 75.716 505.842 76.808 506.906 77.592C507.97 78.376 509.286 78.768 510.854 78.768C512.926 78.768 514.746 78.32 516.314 77.424C517.882 76.528 519.086 75.324 519.926 73.812C520.822 72.244 521.27 70.536 521.27 68.688V56.76C521.27 55.024 520.57 53.568 519.17 52.392C517.826 51.216 515.978 50.628 513.626 50.628C511.386 50.628 509.398 51.244 507.662 52.476C505.982 53.708 504.75 55.332 503.966 57.348L493.886 52.56C494.782 49.984 496.21 47.772 498.17 45.924C500.13 44.076 502.482 42.648 505.226 41.64C507.97 40.632 510.966 40.128 514.214 40.128C518.078 40.128 521.494 40.828 524.462 42.228C527.43 43.628 529.726 45.588 531.35 48.108C533.03 50.572 533.87 53.456 533.87 56.76V87H522.11V79.608L524.966 79.104C523.622 81.12 522.138 82.8 520.514 84.144C518.89 85.432 517.07 86.384 515.054 87C513.038 87.672 510.798 88.008 508.334 88.008ZM563.859 88.008C559.379 88.008 555.375 86.944 551.847 84.816C548.319 82.688 545.519 79.804 543.447 76.164C541.431 72.524 540.423 68.492 540.423 64.068C540.423 59.588 541.459 55.556 543.531 51.972C545.603 48.332 548.403 45.448 551.931 43.32C555.459 41.192 559.407 40.128 563.775 40.128C567.135 40.128 570.103 40.772 572.679 42.06C575.311 43.292 577.383 45.056 578.895 47.352L576.963 49.872V23.412H589.563V87H577.803V78.6L578.979 81.204C577.411 83.444 575.283 85.152 572.595 86.328C569.907 87.448 566.995 88.008 563.859 88.008ZM565.371 76.668C567.667 76.668 569.683 76.136 571.419 75.072C573.155 74.008 574.499 72.524 575.451 70.62C576.459 68.716 576.963 66.532 576.963 64.068C576.963 61.604 576.459 59.42 575.451 57.516C574.499 55.612 573.155 54.128 571.419 53.064C569.683 52 567.667 51.468 565.371 51.468C563.075 51.468 561.003 52.028 559.155 53.148C557.363 54.212 555.963 55.696 554.955 57.6C553.947 59.448 553.443 61.604 553.443 64.068C553.443 66.532 553.947 68.716 554.955 70.62C555.963 72.524 557.363 74.008 559.155 75.072C561.003 76.136 563.075 76.668 565.371 76.668ZM620.042 88.008C615.17 88.008 610.942 86.944 607.358 84.816C603.774 82.632 601.002 79.72 599.042 76.08C597.082 72.44 596.102 68.408 596.102 63.984C596.102 59.392 597.11 55.304 599.126 51.72C601.198 48.136 603.97 45.308 607.442 43.236C610.914 41.164 614.834 40.128 619.202 40.128C622.842 40.128 626.062 40.716 628.862 41.892C631.662 43.012 634.014 44.608 635.918 46.68C637.878 48.752 639.362 51.16 640.37 53.904C641.378 56.592 641.882 59.532 641.882 62.724C641.882 63.62 641.826 64.516 641.714 65.412C641.658 66.252 641.518 66.98 641.294 67.596H606.938V58.356H634.154L628.19 62.724C628.75 60.316 628.722 58.188 628.106 56.34C627.49 54.436 626.398 52.952 624.83 51.888C623.318 50.768 621.442 50.208 619.202 50.208C617.018 50.208 615.142 50.74 613.574 51.804C612.006 52.868 610.83 54.436 610.046 56.508C609.262 58.58 608.954 61.1 609.122 64.068C608.898 66.644 609.206 68.912 610.046 70.872C610.886 72.832 612.174 74.372 613.91 75.492C615.646 76.556 617.746 77.088 620.21 77.088C622.45 77.088 624.354 76.64 625.922 75.744C627.546 74.848 628.806 73.616 629.702 72.048L639.782 76.836C638.886 79.076 637.458 81.036 635.498 82.716C633.594 84.396 631.326 85.712 628.694 86.664C626.062 87.56 623.178 88.008 620.042 88.008ZM648.462 87V41.136H660.222V52.308L658.962 50.46C659.634 46.932 661.258 44.328 663.834 42.648C666.41 40.968 669.49 40.128 673.074 40.128C676.882 40.128 680.214 41.108 683.07 43.068C685.982 44.972 687.802 47.548 688.53 50.796L684.918 51.132C686.43 47.38 688.586 44.608 691.386 42.816C694.186 41.024 697.462 40.128 701.214 40.128C704.518 40.128 707.43 40.856 709.95 42.312C712.526 43.768 714.542 45.812 715.998 48.444C717.454 51.02 718.182 54.044 718.182 57.516V87H705.582V60.204C705.582 58.412 705.246 56.872 704.574 55.584C703.958 54.296 703.062 53.288 701.886 52.56C700.71 51.832 699.282 51.468 697.602 51.468C695.978 51.468 694.55 51.832 693.318 52.56C692.142 53.288 691.218 54.296 690.546 55.584C689.93 56.872 689.622 58.412 689.622 60.204V87H677.022V60.204C677.022 58.412 676.686 56.872 676.014 55.584C675.398 54.296 674.502 53.288 673.326 52.56C672.15 51.832 670.722 51.468 669.042 51.468C667.418 51.468 665.99 51.832 664.758 52.56C663.582 53.288 662.658 54.296 661.986 55.584C661.37 56.872 661.062 58.412 661.062 60.204V87H648.462ZM731.953 105.48C730.609 105.48 729.293 105.368 728.005 105.144C726.773 104.92 725.681 104.556 724.729 104.052V93.72C725.513 93.944 726.437 94.14 727.501 94.308C728.565 94.476 729.545 94.56 730.441 94.56C732.905 94.56 734.669 93.972 735.733 92.796C736.797 91.676 737.665 90.388 738.337 88.932L741.445 81.792L741.277 92.292L721.117 41.136H734.641L747.997 77.508H742.957L756.313 41.136H769.837L750.181 91.284C748.949 94.42 747.437 97.052 745.645 99.18C743.853 101.308 741.809 102.876 739.513 103.884C737.273 104.948 734.753 105.48 731.953 105.48Z" fill="white"/>
</svg>
